/* XPM */
static char *stair_nextlevel_resized[] = {
/* columns rows colors chars-per-pixel */
"32 32 89 1 ",
"  c #000000",
". c #090909",
"X c #1D1D1D",
"o c #272727",
"O c #282828",
"+ c #313131",
"@ c #323232",
"# c #343434",
"$ c #363636",
"% c #373737",
"& c #3A3A3A",
"* c #3D3D3D",
"= c #3F3F3F",
"- c #404040",
"; c #414141",
": c #434343",
"> c #444444",
", c #454545",
"< c #464646",
"1 c #474747",
"2 c #484848",
"3 c #494949",
"4 c #4A4A4A",
"5 c #4B4B4B",
"6 c #4C4C4C",
"7 c #4D4D4D",
"8 c #4E4E4E",
"9 c #4F4F4F",
"0 c #505050",
"q c #515151",
"w c #525252",
"e c #535353",
"r c #545454",
"t c #555555",
"y c #565656",
"u c #575757",
"i c #585858",
"p c #595959",
"a c #5A5A5A",
"s c #5B5B5B",
"d c #5C5C5C",
"f c #5D5D5D",
"g c #5E5E5E",
"h c #606060",
"j c #616161",
"k c #626262",
"l c #636363",
"z c #646464",
"x c #656565",
"c c #666666",
"v c #676767",
"b c #696969",
"n c #6A6A6A",
"m c #6B6B6B",
"M c #6C6C6C",
"N c #6D6D6D",
"B c #6E6E6E",
"V c #717171",
"C c #727272",
"Z c #737373",
"A c #747474",
"S c #787878",
"D c #797979",
"F c #7A7A7A",
"G c #7B7B7B",
"H c #7C7C7C",
"J c #7D7D7D",
"K c #7E7E7E",
"L c #858585",
"P c #868686",
"I c #8C8C8C",
"U c #8D8D8D",
"Y c #8E8E8E",
"T c #8F8F8F",
"R c #909090",
"E c #919191",
"W c #929292",
"Q c #939393",
"! c #949494",
"~ c #959595",
"^ c #979797",
"/ c #989898",
"( c #999999",
") c #9A9A9A",
"_ c #9C9C9C",
"` c #9D9D9D",
"' c #A4A4A4",
"] c #A5A5A5",
"[ c #A6A6A6",
/* pixels */
"                                ",
" .XOOOOOOOOOOOOOOOOOOOOOOOOOOX. ",
" XsJKHHHHHHHHHHHHHHHHHHHHHHJJsX ",
" OJ'~IIIIIIUTRRRRRRRRTTTTTT/]JO ",
" OK~bqqeewwtsgggggggfffffddC/JO ",
" OHIq+@#$%%&-::::::<699995>dTHO ",
" OHIq@@%*--;:>>>>::7jmmmmh5dTHO ",
" OHIe#%*:<<,,>>>>>>wNFFFFm9fTHO ",
" OHIe$*:>,,,>>>>>>>qMFFFFm9fTHO ",
" OHIe%-<,,,1688885<qMDDDDn9fTHO ",
" OHIe%-<,,>6slllla50mDDDDn9fTHO ",
" OHIw%=,,>>8lNMMNk70mDDDDn9fTHO ",
" OHIw$=,,>>8lMMMMk70mDDDDn9fTHO ",
" OHYp=<442,8kMMMMj70mDDDDn9fTHO ",
" OHQv9wtt028kMMMMj70mDDDDn9fTHO ",
" oH~Biiaar38kMMMMj70mDDDDn9fTHO ",
" oH~Biipar38kMMMMj70mDDDDn9fTHO ",
" OH~Nuippr38kMMMMj70mDDDDn9fTHO ",
" OH~Nuippr38kMMMMj70mDDDDn9fTHO ",
" OH~Nuippr38kMMMMj70mDDDDn9fTHO ",
" OH~Nuippr38kMMMMj70mDDDDn9fTHO ",
" OH~Nuippr38kMMMMj70mDDDDn9fTHO ",
" OH~Nuippr38kMMMMj70mDDDDn9fTHO ",
" OH~Nuippr38kMMMMj70mDDDDn9fTHO ",
" OH~Nuippr38kMMMMj70mDDDDn9fTHO ",
" OH~Myuiie26jmmmmh69nDSSDb8dTHO ",
" OH~Mtyiiw16hnnnnh58nSSSSb7sYHO ",
" OJ_JMMBBbjxAHGGHZzvGPLLPFcV/JO ",
" OJ[_~~~~!EW^))))^WQ(````(Q/]JO ",
" XsJJHHHHHHHGGGGGGHHGGGGGGHJJsX ",
" .XOOOOooOOOooooooOOooooooOOOX. ",
"                                "
};
