/* XPM */
static char *knight_idle_anim_f0_resized[] = {
/* columns rows colors chars-per-pixel */
"32 32 141 2 ",
"   c #134214",
".  c #020204",
"X  c #050608",
"o  c #0C0B0D",
"O  c #0B0304",
"+  c #10080A",
"@  c #0D0D10",
"#  c #141416",
"$  c #1B1A1D",
"%  c #230B0C",
"&  c #2A0D0E",
"*  c #240E10",
"=  c #2B0F10",
"-  c #2B1315",
";  c #241C1F",
":  c #321112",
">  c #381112",
",  c #331D1F",
"<  c #1D1D20",
"1  c #231E21",
"2  c #212225",
"3  c #252529",
"4  c #262B2E",
"5  c #282B2F",
"6  c #3B2124",
"7  c #292D31",
"8  c #252C30",
"9  c #302F31",
"0  c #2E3032",
"q  c #333336",
"w  c #3A3B3D",
"e  c #551919",
"r  c #6A1F1F",
"t  c #661C1D",
"y  c #651F20",
"u  c #6B1F20",
"i  c #472629",
"p  c #40393A",
"a  c #6E2425",
"s  c #732222",
"d  c #7C2324",
"f  c #782F33",
"g  c #7C3436",
"h  c #65483A",
"j  c #3D3C40",
"k  c #3E4248",
"l  c #424243",
"z  c #41444A",
"x  c #4C474D",
"c  c #4E4C52",
"v  c #524D53",
"b  c #545057",
"n  c #575259",
"m  c #58545B",
"M  c #6A4E54",
"N  c #6C5157",
"B  c #6F545A",
"V  c #7B575D",
"C  c #5F6A70",
"Z  c #636269",
"A  c #6E6E6F",
"S  c #68656C",
"D  c #6C6B72",
"F  c #706D75",
"G  c #717179",
"H  c #832626",
"J  c #882727",
"K  c #8A2829",
"L  c #9E2E2E",
"P  c #962B2B",
"I  c #923030",
"U  c #AE3332",
"Y  c #B13333",
"T  c #B35B2D",
"R  c #C56A3F",
"E  c #9F3D40",
"W  c #A03D40",
"Q  c #954E4F",
"!  c #9C494D",
"~  c #9D5558",
"^  c #A64243",
"/  c #AE4E41",
"(  c #BF6253",
")  c #915E64",
"_  c #8B686F",
"`  c #906D6E",
"'  c #99776F",
"]  c #8D6A71",
"[  c #916C72",
"{  c #9B7870",
"}  c #BC7475",
"|  c #C36455",
" . c #C66565",
".. c #7C7780",
"X. c #727C84",
"o. c #787981",
"O. c #827C85",
"+. c #917A82",
"@. c #76848C",
"#. c #7A848C",
"$. c #84828B",
"%. c #89848E",
"&. c #808E97",
"*. c #8B8C96",
"=. c #8B8F99",
"-. c #8B939C",
";. c #8F9293",
":. c #92959A",
">. c #969999",
",. c #929293",
"<. c #AA9197",
"1. c #9297A1",
"2. c #9698A1",
"3. c #9C9DA5",
"4. c #95A2AC",
"5. c #97A6B0",
"6. c #98A7B1",
"7. c #9AA9B3",
"8. c #9BAEB8",
"9. c #9EB1BB",
"0. c #BAA3A4",
"q. c #A1B4BE",
"w. c #A8B4BC",
"e. c #B2B6B8",
"r. c #C6A7A2",
"t. c #AEBDC5",
"y. c #B6C4CC",
"u. c #B9C7CF",
"i. c #BBC9D1",
"p. c #C3C4C4",
"a. c #C5C8C8",
"s. c #CFD3D8",
"d. c #D3D3D3",
"f. c #EED7D7",
"g. c #F5D5D5",
"h. c #D5DDE1",
"j. c #E7DFE0",
"k. c #EAEEF1",
"l. c #ECF1F3",
"z. c #F3F4F5",
"x. c #F2F7F9",
/* pixels */
"                    X X X X . X                                 ",
"                    X + % - - =                                 ",
"                    X * y K J r * X                             ",
"                    X = u I ^ g - .                             ",
"                        % i V B 1 . . . . . . .                 ",
"                        < j D F z 4 5 5 5 5 7 4                 ",
"                    . 1 c S ..O.#.#.@.@.@.@.#.C 4 .             ",
"                    < j G *.*.-.5.8.9.9.9.9.q.@.7 .             ",
"                . 1 c G -.4.3.5.7.8.8.8.8.8.9.@.7 .             ",
"                . 3 D 1.6.q.t.y.y.y.y.y.y.i.i.-.0 .             ",
"                . 5 X.6.8.t.h.k.l.l.k.l.l.z.x.e.w .             ",
"                . 7 @.9.8.y.k.z.d.p.p.p.p.a.a.,.q .             ",
"                . 7 @.8.8.u.l.d.A w w w l l l 9 # .             ",
"                . 5 X.7.8.y.l.d.A w w 9 o @ q q # X             ",
"                . 3 D :.5.y.k.z.d.p.a.;.5 5 :.>.q .             ",
"                . $ x G -.w.s.j.f.g.g.r.h h r.0.p .             ",
"                . o $ j G :.3.<.}  . .( T T | Q , .             ",
"                X . . 1 N [ [ ) ! W E T R | T f - .             ",
"                    . - g ^ W ! ) _ _ ] ' ' ] M 1 .             ",
"                    o - g ^ ^ ~ +.=.=.=.=.=.=.D 3 .             ",
"                Y d * 1 M [ [ +.1.7.7.7.5.7.7.X.7 .             ",
"                Y J = 2 Z %.$.$.@.@.@.#.@.#.4.X.7 .             ",
"            U U U H = 2 Z %.%.F k 8 8 7 7 z o.F 3 .             ",
"            U U Y J = 2 Z O.F v 6 % X X < q n v 1 .             ",
"            U Y Y H & 3 S D j 6 a t % < c m q < @               ",
"            P L L s % < c v < & d d % < c b 1 .                 ",
"              e e : + o < < @     > + @ < 2 @                   ",
"                    X X . .         . X . .                     ",
"                      . .             . .                       ",
"                                                                ",
"                                                                ",
"                                                                "
};
