/* XPM */
static char *floor_1_resized[] = {
/* columns rows colors chars-per-pixel */
"32 32 100 2 ",
"   c #57403D",
".  c #55403F",
"X  c #58403D",
"o  c #4F3F46",
"O  c #4F3F47",
"+  c #503F47",
"@  c #544041",
"#  c #564040",
"$  c #514045",
"%  c #524045",
"&  c #514046",
"*  c #504047",
"=  c #514047",
"-  c #524147",
";  c #544145",
":  c #574244",
">  c #574245",
",  c #544146",
"<  c #554146",
"1  c #554246",
"2  c #574347",
"3  c #5B4342",
"4  c #5F4441",
"5  c #514048",
"6  c #544148",
"7  c #544248",
"8  c #574248",
"9  c #574348",
"0  c #594348",
"q  c #594448",
"w  c #5B454A",
"e  c #5C4549",
"r  c #5C454A",
"t  c #5F474B",
"y  c #604544",
"u  c #604644",
"i  c #614644",
"p  c #654844",
"a  c #664844",
"s  c #6A4A46",
"d  c #6B4A46",
"f  c #614749",
"g  c #624749",
"h  c #60474B",
"j  c #674948",
"k  c #674A48",
"l  c #65494B",
"z  c #66494A",
"x  c #664A4B",
"c  c #6F4D48",
"v  c #6D4C4B",
"b  c #6D4D4B",
"n  c #6E4D4B",
"m  c #704D48",
"M  c #704D49",
"N  c #704E4B",
"B  c #714E4B",
"V  c #734F4A",
"C  c #744F4A",
"Z  c #714F4C",
"A  c #724F4C",
"S  c #75504C",
"D  c #76504C",
"F  c #76514C",
"G  c #77514C",
"H  c #76514D",
"J  c #74504E",
"K  c #74514E",
"L  c #78514C",
"P  c #78524C",
"I  c #79524C",
"U  c #7A534D",
"Y  c #79524E",
"T  c #7A534E",
"R  c #7B534E",
"E  c #7D544F",
"W  c #7E544F",
"Q  c #735050",
"!  c #735150",
"~  c #7F5550",
"^  c #7F5650",
"/  c #7D5552",
"(  c #7E5552",
")  c #7E5653",
"_  c #7F5653",
"`  c #7F5654",
"'  c #805651",
"]  c #815651",
"[  c #815751",
"{  c #825751",
"}  c #805754",
"|  c #835852",
" . c #855953",
".. c #895B55",
"X. c #8A5B55",
"o. c #8A5C56",
"O. c #8B5C56",
"+. c #8C5C56",
"@. c #8E5E57",
"#. c #8E5E58",
/* pixels */
"O q b L L G G G G L L b 0 o * * O q n L L G G G G L L b 0 o * = ",
"q f N L G G G G G G L Z l w 6 - 9 f N L G G G G G G L Z l w 6 = ",
"b N S G G G G G G G G Y / Q w 8 z N S G G G G G G G G Y / Q r + ",
"L L G G G G G G G F F W X.} t q n I L G G G G G G F F W X.` h o ",
"L G G G G G G G G F F W X.` t 0 b P L G G G G G G F F W X._ h o ",
"G G G G G G G G G F F E ..) t 0 v L L G G G G G G F F E ..) t o ",
"G G G G G G G G G F F E ..) t 0 v L L G G G G G G F F E ..) t o ",
"G G G G G G G G G F D E ..) t 0 v L L G G G G G G F D E ..) t o ",
"G G G G G G G G G F D E ..) t 0 v L L G G G G G G F D E ..) t o ",
"G G G F F F F F F L R { O.` t 0 b P G F F F F F F L R { O._ h o ",
"L G G F F F F D D R | o.@.` t q n P G F F F F D D R | o.@._ h o ",
"c V U W E E E E E { o.+. .K e 2 j C U W E E E E E { o.+. .J e + ",
"4 s ~ X.X.........O.#. .M y < ; 3 d ^ X.X.........O.#. .M y 1 * ",
". u H { [ ] ] ] ] [ [ H u @ $ $ @ i H { [ ] ] ] ] [ [ H u @ $ = ",
"% > u a p p p p p p p u : $ & & $ > i a p p p p p p p u : $ & = ",
"* , 3 4 4 4 4 4 4 4 4 3 ; * = = * , 3 4 4 4 4 4 4 4 4 3 ; * = = ",
"O 2 j m c c c c c c m j 2 O * * + 2 k m c c c c c c m j 2 O * = ",
"q f N P P L L L L P P A x w 6 - 9 g B P P L L L L P P A x w 7 = ",
"n N S L L G G G G G G T ( ! w 8 z B D L L G G G G G G T ( ! r + ",
"L L G G G G G G G F F W X.} t q n I L G G G G G G F F W X.` h o ",
"L G G G G G G G G F F W X.` t 0 b P L G G G G G G F F W X._ h o ",
"G G G G G G G G G F F E ..) t 0 v L L G G G G G G F F E ..) t o ",
"G G G G G G G G G F F E ..) t 0 v L L G G G G G G F F E ..) t o ",
"G G G G G G G G G F D E ..) t 0 v L L G G G G G G F D E ..) t o ",
"G G G G G G G G G F D E ..) t 0 v L L G G G G G G F D E ..) t o ",
"G G G F F F F F F L R { O.` t 0 b P G F F F F F F L R { O._ h o ",
"L G G F F F F D D R | o.@.` t q n P G F F F F D D R | o.@._ h o ",
"c V U W E E E E E { o.+. .K e 2 j C U W E E E E E { o.+. .J e + ",
"4 s ~ X.X.........O.#. .M y < ; 3 d ^ X.X.........O.#. .M y 1 * ",
". u H { [ ' ' ' ' ] [ H y @ $ $ @ i H { [ ' ' ' ' ] [ H y @ $ = ",
"% > i a a a a a a a a i : $ & & $ > i a a a a a a a a i : $ & = ",
"5 % # X             X # % = = = = % # X             X # % = = = "
};
