/* XPM */
static char *wall_1_resized[] = {
/* columns rows colors chars-per-pixel */
"32 32 146 2 ",
"   c #333C4D",
".  c #333C4E",
"X  c #364052",
"o  c #374053",
"O  c #374153",
"+  c #374154",
"@  c #384154",
"#  c #384255",
"$  c #394356",
"%  c #3A4357",
"&  c #3B4559",
"*  c #3C465B",
"=  c #3C475B",
"-  c #3C475C",
";  c #3D475C",
":  c #3D485D",
">  c #3E485D",
",  c #3E495D",
"<  c #3E495E",
"1  c #3F495E",
"2  c #3F4B5F",
"3  c #3F4A60",
"4  c #404A60",
"5  c #404B60",
"6  c #414B60",
"7  c #424C61",
"8  c #424C62",
"9  c #424D62",
"0  c #434D62",
"q  c #424D63",
"w  c #434D63",
"e  c #424E63",
"r  c #434E63",
"t  c #424E64",
"y  c #434E64",
"u  c #434F64",
"i  c #434E65",
"p  c #434F65",
"a  c #434F66",
"s  c #435066",
"d  c #445067",
"f  c #455168",
"g  c #465269",
"h  c #475369",
"j  c #46526A",
"k  c #47536B",
"l  c #48556D",
"z  c #49566D",
"x  c #49566E",
"c  c #4A566E",
"v  c #4A566F",
"b  c #4A576F",
"n  c #4B576F",
"m  c #4B5872",
"M  c #4C5971",
"N  c #4C5872",
"B  c #4C5973",
"V  c #4D5A72",
"C  c #4C5A73",
"Z  c #4D5A73",
"A  c #4E5B73",
"S  c #4E5B74",
"D  c #4F5C77",
"F  c #4F5D78",
"G  c #505D79",
"H  c #505E79",
"J  c #515F79",
"K  c #505E7A",
"L  c #515E7A",
"P  c #515F7B",
"I  c #525F7B",
"U  c #53617E",
"Y  c #53627E",
"T  c #54617D",
"R  c #54627E",
"E  c #54627F",
"W  c #54637F",
"Q  c #556380",
"!  c #556481",
"~  c #566482",
"^  c #586580",
"/  c #586680",
"(  c #596681",
")  c #596781",
"_  c #596782",
"`  c #586684",
"'  c #586784",
"]  c #596784",
"[  c #596785",
"{  c #586786",
"}  c #596885",
"|  c #5C6A86",
" . c #5C6A87",
".. c #5D6B87",
"X. c #596888",
"o. c #5A6988",
"O. c #5A6989",
"+. c #5A6A89",
"@. c #5B6A89",
"#. c #5C6B8A",
"$. c #5C6B8B",
"%. c #5C6C8B",
"&. c #5D6C8B",
"*. c #5D6C8C",
"=. c #5E6D8D",
"-. c #5E6E8D",
";. c #5F6E8D",
":. c #5F6E8E",
">. c #5F6F8E",
",. c #606F8B",
"<. c #616F8B",
"1. c #616F8C",
"2. c #616F8D",
"3. c #606F8E",
"4. c #606F8F",
"5. c #61708C",
"6. c #61708D",
"7. c #62708D",
"8. c #60708F",
"9. c #607090",
"0. c #617090",
"q. c #637290",
"w. c #657492",
"e. c #657592",
"r. c #647493",
"t. c #667592",
"y. c #667593",
"u. c #657494",
"i. c #657595",
"p. c #677696",
"a. c #677797",
"s. c #687797",
"d. c #6B7B9B",
"f. c #6B7B9C",
"g. c #6C7C9C",
"h. c #6D7D9D",
"j. c #6D7D9E",
"k. c #6E7E9E",
"l. c #6E7F9F",
"z. c #6F80A0",
"x. c #7080A1",
"c. c #7081A1",
"v. c #7181A1",
"b. c #7181A2",
"n. c #7182A2",
"m. c #7282A3",
/* pixels */
"s 2 O     . . . . . . . .     + 5 5 +     . . . . . . . . . . . ",
"p u r w r r r r r r r r r r w r u u r w r r r r r r r r r r w w ",
"t c ) 1.1.1.1.1.1.1.1.1.1.1.1.( z z ( 1.1.1.1.1.1.1.1.1.1.<.,.,.",
"e S y.b.k.g.g.g.g.g.g.g.g.k.b.t.Z Z t.b.k.g.g.g.g.g.g.g.g.j.x.n.",
"t S y.l.i.9.0.0.9.9.0.0.9.i.l.y.A A y.l.i.9.0.0.9.9.0.0.9.i.j.m.",
", h / ..R F F L U U L F F R ..^ g g ^ ..R F F L U U L F F T  .<.",
"o % 1 6 > * * 3 g g 3 * * > 6 1 $ $ 1 6 > * * 3 g g 3 * * > 6 7 ",
"r w 9 8 9 9 9 0 y y 0 9 9 9 8 9 w w 9 8 9 9 9 0 y y 0 9 9 9 8 8 ",
"5.1.1.<.1.5.5.( z z ( 5.5.1.<.1.1.1.1.<.1.5.5.( z z ( 5.5.1.<.<.",
"d.d.d.d.d.j.c.w.V V e.v.j.d.d.d.d.d.d.d.d.j.c.w.V V w.c.j.d.d.d.",
"4.4.4.3.3.u.j.w.V Z t.k.u.3.3.4.4.4.4.3.3.u.j.w.V V w.j.u.3.3.4.",
"o.o.o.o.X.;.a.6.M n | q.&.o.o.o.o.o.o.o.X.;.a.6.M M 6.a.;.o.o.o.",
"O.O.+.+.+.%.>.} b f n J ` @.@.+.O.O.+.+.+.%.>.] v v ] >.%.+.+.+.",
"Q Y P H H K K B i , : t B L K P R R P H H K K m t t m K K H H H ",
"x g 4 = = ; - & # o X @ & - = 4 j j 4 = = ; - & # # & - ; ; ; ; ",
"t y 0 9 9 9 9 0 w r r w 0 9 9 0 y y 0 9 9 9 9 0 w w 0 9 9 9 9 8 ",
"e c ) 5.5.1.1.1.1.5.5.1.1.5.5.( z z ( 5.5.1.1.1.1.1.1.1.1.1.<.,.",
"q A e.c.j.d.f.g.d.d.d.d.d.j.c.w.V V w.c.j.d.d.d.d.d.d.d.d.h.z.v.",
"q A w.j.u.3.4.8.4.4.4.3.3.u.j.w.V V w.j.u.3.3.4.4.4.4.3.3.r.h.v.",
"t V 6.s.;.{ ! ! { o.o.o.X.;.a.6.M M 6.a.;.X.o.o.o.o.o.o.X.=.p.d.",
"t b [ 4.*.~ C C ~ @.@.+.+.%.>.] v v ] >.%.+.+.+.O.O.+.+.+.#.;.4.",
"< i m L L N t a D E I H H K K m t t m K K H H P R R P H H H G G ",
"o # & ; ; & @ & d j 5 = = ; - & # # & - ; = = 4 j j 4 = = - = = ",
"r w 0 9 9 0 0 r y y 0 9 9 9 9 0 w w 0 9 9 9 9 0 y y 0 9 9 9 9 9 ",
"5.1.1.1.1.5.7._ z z ( 5.5.1.1.1.1.1.1.1.1.5.5.( z z ( 5.5.1.1.1.",
"d.d.d.d.d.j.c.w.V V w.c.j.d.d.d.d.d.d.d.d.j.c.w.V V w.c.j.d.d.d.",
"4.4.4.3.3.u.j.w.V V w.j.u.3.3.4.4.4.4.3.3.u.j.w.V V w.j.u.3.3.4.",
"o.o.o.X.X.-.a.2.M M 2.a.-.X.X.o.o.o.o.X.X.-.a.2.M M 2.a.-.X.X.o.",
"O.O.O.O.o.$.:.' x x ' :.$.o.O.O.O.O.O.O.o.$.:.' x x ' :.$.o.O.O.",
"E E E E E W W F k k F W W E E E E E E E E W W F k k F W W E E E ",
"l l l l l l l k d d k l l l l l l l l l l l l k d d k l l l l l ",
"t t t t t t t t p p t t t t t t t t t t t t t t p p t t t t t t "
};
